<?xml version="1.0" encoding="utf-8"?>
<!-- Svg Vector Icons : http://www.onlinewebfonts.com/icon -->
<!DOCTYPE svg PUBLIC "-//W3C//DTD SVG 1.1//EN" "http://www.w3.org/Graphics/SVG/1.1/DTD/svg11.dtd">
<svg version="1.1" xmlns="http://www.w3.org/2000/svg" xmlns:xlink="http://www.w3.org/1999/xlink" x="0px" y="0px" viewBox="0 0 1000 1000" enable-background="new 0 0 1000 1000" xml:space="preserve">
<metadata> Svg Vector Icons : http://www.onlinewebfonts.com/icon </metadata>
<g><path d="M343.2,495.2h131L410.9,990H110.5L343.2,495.2z"/><path d="M560.1,495.2h136.7L918.2,990H605.3L560.1,495.2z"/><path d="M453.9,545.3h134.8v50.5H453.9V545.3z"/><path d="M425.3,752.4h189.8v102.4H425.3V752.4z"/><path d="M315.3,444.4h79.1c0,0,0-177.7,0-206.3c0-28.6-3.8-122-107.7-123.5h-53.5v-52L81.8,158.2L231,252.4v-51.2c0,0,41.4,0,50.5,0c27.9,0,34.6-3.1,34.6,38.4C316.1,281,315.3,444.4,315.3,444.4z"/><path d="M550.5,175.5h46.3L510.4,10l-87,165.5h47.4v106.8c0,0,52.5,5.6,52.5,28.2c0,22.6-52,28.8-52,28.8v103.9h78.5v-40.7c0,0,53.6-27.1,52.5-90.4c-1.1-63.2-40.1-87-52.5-92.6L550.5,175.5z"/><path d="M644.8,440.4h78.5c0,0,0-133.9,0-142.3c0-8.5,1.1-24.8,18.1-46.9c16.9-22.1,65-71.8,65-71.8l35.6,38.4l43.5-182.4L718.2,85.7l31.1,33.9c0,0-100,92.7-102.8,148.6C643.7,324,644.8,440.4,644.8,440.4z"/></g>
</svg>