<?xml version="1.0" encoding="utf-8"?>
<!-- Svg Vector Icons : http://www.onlinewebfonts.com/icon -->
<!DOCTYPE svg PUBLIC "-//W3C//DTD SVG 1.1//EN" "http://www.w3.org/Graphics/SVG/1.1/DTD/svg11.dtd">
<svg version="1.1" xmlns="http://www.w3.org/2000/svg" xmlns:xlink="http://www.w3.org/1999/xlink" x="0px" y="0px" viewBox="0 0 1000 1000" enable-background="new 0 0 1000 1000" xml:space="preserve">
<metadata> Svg Vector Icons : http://www.onlinewebfonts.com/icon </metadata>
<g><g transform="translate(0.000000,512.000000) scale(0.100000,-0.100000)"><path d="M4680.3,5014.5c-519.6-51.8-824.4-113.1-1236.6-249.2C1674.1,4176.7,408.7,2646.7,134.5,760.2c-46-316.3-46-968.2,0-1284.5c155.3-1077.5,603.9-1999.7,1344-2768.5c757.3-786.1,1748.5-1288.4,2875.9-1451.3c345.1-51.8,985.4-46,1347.8,9.6c759.2,115,1460.9,391.1,2066.8,811C9590.3-2664,10351.5-359.5,9630.6,1718.8c-347,998.9-998.9,1848.2-1880.8,2454.1c-611.6,418-1294.1,684.5-2049.5,797.6C5458.7,5004.9,4856.7,5031.8,4680.3,5014.5z M5686.8,4146c734.3-132.3,1372.7-429.5,1938.3-901.1c789.9-657.6,1307.6-1614.3,1436-2647.7c24.9-209,24.9-749.6,0-958.6c-132.3-1060.3-680.6-2047.6-1505-2705.2c-1796.5-1432.2-4396.2-1119.7-5803.5,697.9C1304-1787.8,1018.4-1078.5,930.2-334.6c-32.6,279.9-13.4,906.8,38.3,1171.4c182.1,962.5,667.2,1798.4,1399.6,2408.1c644.2,538.7,1355.5,837.8,2245.1,945.2c36.4,3.8,243.5,5.8,460.1,1.9C5366.7,4188.2,5522,4176.7,5686.8,4146z"/><path d="M4757,2545.1c-226.2-53.7-417.9-201.3-521.5-396.9l-53.7-103.5l-9.6-546.4l-9.6-546.4l-556-9.6c-534.9-9.6-559.8-11.5-638.4-53.7c-126.6-67.1-249.2-201.3-316.3-345.1c-53.7-113.1-61.3-151.5-67.1-331.7c-9.6-245.4,19.2-358.5,126.5-527.2c42.2-63.3,118.9-147.6,170.6-186c168.7-124.6,205.1-130.4,772.6-134.2l508.1-3.8l9.6-565.6l9.6-565.6l55.6-101.6c251.2-450.5,956.7-523.4,1305.7-134.2c168.7,187.9,170.6,201.3,182.1,820.6l9.6,546.4l529.2,1.9c521.5,1.9,531.1,3.8,632.7,49.8c239.6,111.2,377.7,308.7,419.9,605.8c49.8,356.6-115,707.5-404.5,860.8l-103.5,53.7l-536.8,9.6l-536.8,9.6l-9.6,565.6l-9.6,565.6l-55.6,101.6C5495.1,2481.8,5115.5,2633.3,4757,2545.1z"/></g></g>
</svg>